<?xml version="1.0" encoding="UTF-8"?><svg id="a" xmlns="http://www.w3.org/2000/svg" viewBox="0 0 200 50"><defs><style>.b{fill:#1d424a;}.c{fill:#dedede;}</style></defs><path class="c" d="M26.87,33.36c-.22-.15-.48-.23-.77-.23-.25,0-.53.06-.86.17-1,.36-2.19.53-3.62.53-4.46,0-5.97-1.34-5.97-5.31v-4.27c0-1.99.4-3.3,1.27-4.1.88-.82,2.29-1.2,4.44-1.2,1.26,0,2.41.19,3.44.57h0s0,0,0,0c.35.12.64.18.89.18.29,0,.55-.08.76-.23.52-.37.6-1.03.6-1.69v-.44c0-1.32-.43-1.89-1.77-2.35-1.15-.41-2.47-.61-4.01-.61-3.32,0-5.89.85-7.64,2.51-1.76,1.67-2.65,4.13-2.65,7.31v4.35c0,3.27.88,5.75,2.62,7.38,1.73,1.62,4.35,2.45,7.8,2.45,1.59,0,2.96-.2,4.2-.6,1.36-.39,1.89-1.03,1.89-2.27v-.44c0-.63-.07-1.33-.63-1.72Z"/><path class="c" d="M47.92,14.83h-.47c-1.49,0-2.09.62-2.09,2.13v12.49c0,3.28-1.26,4.38-4.98,4.38s-5.03-1.15-5.03-4.38v-12.49c0-1.53-.59-2.13-2.09-2.13h-.47c-1.49,0-2.09.62-2.09,2.13v12.49c0,2.93.83,5.19,2.47,6.69,1.63,1.5,4.05,2.25,7.22,2.25s5.59-.73,7.22-2.22c1.61-1.49,2.43-3.75,2.43-6.72v-12.49c0-1.53-.59-2.13-2.09-2.13Z"/><path class="c" d="M63.61,14.48c-.54-.06-1.02-.09-1.46-.09-2.64,0-4.66.71-6.02,2.12-1.35,1.4-2.04,3.49-2.04,6.21v13.11c0,1.53.59,2.13,2.09,2.13h.47c1.55,0,2.09-.56,2.09-2.13v-12.93c0-1.51.25-2.49.77-3.09.51-.58,1.34-.85,2.62-.85.29,0,.62.03,1.01.06l.22.02c.26.04.46.06.64.06.41,0,.73-.1.98-.32.46-.39.52-1,.52-1.6v-.44c0-1.49-.5-2.08-1.92-2.26Z"/><path class="c" d="M84.7,33.57c-.25-.2-.54-.29-.9-.29-.2,0-.44.03-.71.09h-.02s-.02,0-.02,0c-.92.28-2.1.41-3.61.41-2.29,0-3.22-1.14-3.22-3.94v-10.45h6.23c.55,0,1.17-.06,1.58-.48.41-.42.47-1.05.47-1.6v-.4c0-1.5-.58-2.08-2.05-2.08h-6.23v-3.81c0-1.32-.58-1.91-1.88-1.91h-.3c-1.34,0-1.94.55-2.01,1.85l-.41,3.96-1.89.27c-1.29.19-1.77.75-1.77,2.08v.22c0,1.41.49,1.91,1.88,1.91h1.72s0,10.45,0,10.45c0,2.77.67,4.9,2,6.33,1.34,1.44,3.33,2.17,5.93,2.17,1.46,0,2.75-.15,3.92-.47h0s0,0,0,0c1.32-.38,1.85-1.04,1.85-2.28v-.4c0-.59-.07-1.25-.56-1.65Z"/><path class="c" d="M105.5,16.84c-1.67-1.65-4.15-2.45-7.59-2.45-3.32,0-5.87.85-7.58,2.52-1.71,1.67-2.58,4.18-2.58,7.44v4.09c0,3.4.82,5.85,2.51,7.51,1.69,1.65,4.19,2.45,7.65,2.45,3.3,0,5.83-.85,7.52-2.52,1.69-1.67,2.55-4.18,2.55-7.44v-4.09c0-3.4-.81-5.85-2.49-7.5ZM92.42,24.35c0-4.08,1.34-5.39,5.5-5.39,2.07,0,3.41.38,4.22,1.19.81.81,1.19,2.15,1.19,4.2v4.09c0,4.03-1.37,5.39-5.41,5.39-2.1,0-3.46-.38-4.29-1.19-.82-.81-1.21-2.15-1.21-4.2v-4.09Z"/><path class="c" d="M153.11,33.64h-8.76c-.79,0-1.12-.31-1.12-1.08V13.36c0-1.78-.6-2.38-2.38-2.38h-.53c-1.78,0-2.38.6-2.38,2.38v20.15c0,3.53,1.64,5.17,5.17,5.17h9.99c1.75,0,2.34-.59,2.34-2.34v-.37c0-1.75-.59-2.34-2.34-2.34Z"/><path class="c" d="M181.57,20.6c-1.77,0-3.18.4-4.21,1.19v-10.2c0-.76-.62-1.38-1.38-1.38h-1.81c-.76,0-1.38.62-1.38,1.38v19.59c0,4.92,2.87,7.62,8.08,7.62s8.12-2.56,8.12-7.62v-2.82c0-5.07-2.57-7.75-7.43-7.75ZM180.92,34.4c-2.73,0-3.56-.77-3.56-3.29v-2.82c0-2.55.83-3.33,3.56-3.33s3.49.78,3.49,3.33v2.82c0,2.32-.49,3.29-3.49,3.29Z"/><path class="c" d="M168.96,38.13c-.33.22-.79.22-1.19.23-.74.01-1.5,0-2.2,0-.36-.01-.79-.02-1.02-.32-.13-.18-.13-.43-.15-.65-.09-1.79-.14-5.92-.36-8.42-.43-3.36-.19-16.41-5.9-14.57-.68.23-1.31.77-1.69,1.37-1.37,2.56-1.78,6.13-2.26,9.18-.09.73-.17,1.31-.24,2.05-.06.54-.09,1.14-.43,1.59-.53.66-1.68.65-2.51.69-.98.05-1.94-.16-1.86-1.36.22-5.18,1.51-12.59,5.22-16.47,1.88-1.97,5.09-2.56,7.5-1.35,1.66.83,2.9,2.49,3.74,4.07.49.92.87,1.88,1.14,2.86,1.61,5.72,2.32,16.33,2.53,20.04.02.37.05.8-.3,1.06h-.02Z"/><path class="c" d="M160.94,24.05c0,1.18-.8,2.13-1.98,2.13s-2.13-.95-2.13-2.13.95-2.44,2.13-2.44,1.98,1.26,1.98,2.44Z"/><path class="b" d="M129.49,21.1c.26.14.28.76.29,1.83,0,2.35,0,4.53,0,7.14,0,1.41,0,2.79,0,3.97-.08,1.52.38,3.7-1.41,4.1-1.47.25-2.98-.08-4.62-.51-2.17-.63-4.19-1.74-5.88-3.25-.89-.79-2.27-2.2-2.25-3.14.01-1.31,1.96-2.2,3.04-3.03,1.07-.74,2.32-1.6,3.57-2.47,1.92-1.33,3.52-2.43,5.22-3.61.65-.45,1.85-1.29,2.04-1.06h0Z"/><path class="b" d="M118.12,12.06c.19-.38.65-.34,1.48-.35,2.73,0,7.16,0,9.06,0,.93-.03,1.08.39,1.11,1.3.02.77.04,2.01-.04,2.76-.06.85-.69.81-1.32.81-2.53-.06-7.46.12-9.94-.07-.5-.19-.46-.6-.52-1.2,0-.86-.13-2.5.15-3.24v-.02Z"/><path class="b" d="M114.95,18.92c.14-.56,1.02-.39,1.49-.42,1.59,0,3.93,0,5.15,0,.25.01.53-.01.74.17.41.43.27,1.86.3,2.63-.03.77.06,1.81-.47,2.01-1.64.18-4.65.02-6.31.07-.22,0-.45,0-.64-.09-.35-.21-.36-.66-.4-1.28,0-.85-.08-2.36.12-3.07v-.02Z"/></svg>